<?xml version="1.0" encoding="UTF-8"?>
<svg version="1.1" xmlns="http://www.w3.org/2000/svg" width="2816" height="1536">
<path d="M0 0 C929.28 0 1858.56 0 2816 0 C2816 506.88 2816 1013.76 2816 1536 C1886.72 1536 957.44 1536 0 1536 C0 1029.12 0 522.24 0 0 Z " fill="#FEFEFE" transform="translate(0,0)"/>
<path d="M0 0 C1.28648438 0.27972656 2.57296875 0.55945313 3.8984375 0.84765625 C26.67615303 6.00974476 45.8675996 18.12106894 58.80859375 37.7421875 C68.59234427 53.60659158 73.15960111 71.83473931 73.14044189 90.36500549 C73.14341302 91.27597313 73.14638414 92.18694077 73.1494453 93.12551349 C73.15807859 96.16124047 73.15963598 99.19692776 73.16113281 102.23266602 C73.16576483 104.4163776 73.17079 106.60008837 73.17617798 108.78379822 C73.1892679 114.70563009 73.1957404 120.62745064 73.20018864 126.54929471 C73.20312515 130.25410122 73.20723107 133.95890467 73.21169281 137.66370964 C73.22614385 149.93606611 73.23547814 162.20841413 73.23955932 174.48077834 C73.23989347 175.47171274 73.23989347 175.47171274 73.24023438 176.48266602 C73.24056652 177.47482458 73.24056652 177.47482458 73.24090537 178.48702674 C73.24509341 189.8555206 73.26524833 201.22393157 73.2898953 212.59239823 C73.31155631 222.94515202 73.32160136 233.2978771 73.32293582 243.6506533 C73.32398077 249.82537049 73.32982236 255.99999131 73.34775543 262.17468452 C73.3643124 267.98844343 73.36635474 273.80203431 73.35761642 279.61580849 C73.3568501 281.73970746 73.3611349 283.86361576 73.37107468 285.98749161 C73.42276882 297.7296572 72.94524339 308.59221746 70 320 C69.71009815 321.1312156 69.4201963 322.2624312 69.12150955 323.42792606 C65.58043811 336.60096746 59.23775875 348.94714489 50 359 C49.36320312 359.70511719 48.72640625 360.41023438 48.0703125 361.13671875 C32.8704776 377.16064108 10.39830862 386.25210128 -11.57348633 387.14526367 C-14.93258415 387.16555572 -18.29147577 387.18568441 -21.65063477 387.18530273 C-23.79659024 387.18748383 -25.94202611 387.20566732 -28.08789062 387.22460938 C-35.60185535 387.25576053 -42.68880853 386.89920128 -50 385 C-51.72089844 384.60941406 -51.72089844 384.60941406 -53.4765625 384.2109375 C-67.80490873 380.40663714 -80.05668555 374.09442328 -91 364 C-91.94552734 363.17435547 -91.94552734 363.17435547 -92.91015625 362.33203125 C-108.98892188 347.49854587 -118.00217483 324.20634261 -119.11997867 302.69062614 C-119.3220662 296.10463296 -119.30495061 289.51619151 -119.30639648 282.92773438 C-119.31402994 280.71361007 -119.32245945 278.49948839 -119.33161926 276.28536987 C-119.35345627 270.30144421 -119.36234877 264.31756962 -119.36744571 258.33360863 C-119.37110261 254.58466879 -119.37734957 250.83574206 -119.3844471 247.08680725 C-119.40388221 236.67048222 -119.42040841 226.25416627 -119.42332363 215.83782196 C-119.4235112 215.17344597 -119.42369877 214.50906998 -119.42389202 213.82456139 C-119.42425823 212.47820505 -119.42462193 211.1318487 -119.42498314 209.78549236 C-119.42516595 209.1173248 -119.42534876 208.44915725 -119.42553711 207.76074219 C-119.42571766 207.09174206 -119.42589821 206.42274193 -119.42608423 205.73346907 C-119.42962059 194.9104945 -119.45661884 184.08771953 -119.494035 173.26481408 C-119.53230009 162.10542409 -119.55104323 150.94611656 -119.55178314 139.78665781 C-119.55257175 133.54021684 -119.56111746 127.29403379 -119.58978081 121.0476532 C-119.61617866 115.16394928 -119.61804663 109.28071317 -119.60212517 103.39697647 C-119.60032774 101.25462437 -119.60684417 99.11224399 -119.62294388 96.96995163 C-119.80398048 71.28572671 -114.25652826 49.24586034 -98 29 C-97.48308594 28.30777344 -96.96617188 27.61554687 -96.43359375 26.90234375 C-82.76464765 9.67056459 -60.11623008 1.70724263 -39.0625 -1.3125 C-26.03458076 -2.67634 -12.82228176 -2.93222722 0 0 Z " fill="#010101" transform="translate(1861,575)"/>
<path d="M0 0 C14.40516108 -0.09403131 28.81027361 -0.16399677 43.21568012 -0.20724869 C49.90651376 -0.2277504 56.59712682 -0.2561435 63.2878418 -0.30175781 C69.75883684 -0.34559221 76.22963341 -0.36921574 82.70076561 -0.37950897 C85.15520535 -0.3868334 87.60963567 -0.4011337 90.06398964 -0.42292023 C107.75901659 -0.57357947 125.36758898 -0.05080658 141.625 7.8125 C142.36806396 8.15869385 143.11112793 8.5048877 143.87670898 8.86157227 C149.52416077 11.5775887 154.4364992 14.67191789 159 19 C159.8353125 19.78117188 160.670625 20.56234375 161.53125 21.3671875 C166.02944772 25.71266863 166.02944772 25.71266863 168 28 C168 28.66 168 29.32 168 30 C168.66 30 169.32 30 170 30 C175.94343414 40.05798869 181.24764029 49.5583996 184 61 C184.39384888 62.51098267 184.39384888 62.51098267 184.7956543 64.05249023 C187.72709045 77.01828105 187.45801189 90.10667885 187.39111328 103.33520508 C187.37403881 106.74847338 187.38417364 110.16103938 187.40142059 113.5742836 C187.47744572 131.23438859 187.27105056 148.20325752 180.75 164.875 C180.44626465 165.66962646 180.1425293 166.46425293 179.82958984 167.28295898 C172.62217135 185.49851048 158.60847726 200.41749775 141 209 C140.01 209 139.02 209 138 209 C138.40826514 210.48150758 138.82723328 211.96006525 139.25 213.4375 C139.59804687 214.67306641 139.59804687 214.67306641 139.953125 215.93359375 C141.05700088 219.16696153 142.39700234 222.20612241 143.8046875 225.31616211 C146.27005512 230.85165767 148.55863409 236.46341334 150.875 242.0625 C151.14311493 242.7094986 151.41122986 243.35649719 151.68746948 244.02310181 C154.59162536 251.03785857 157.45828373 258.05454399 160.0625 265.1875 C163.05968662 273.39408242 166.50628943 281.40289083 169.95532227 289.4284668 C172.76625212 295.98965608 175.41705176 302.58831798 177.92651367 309.27099609 C180.08316766 314.75361568 182.35678911 317.70613697 187.3125 320.75 C194.39388124 325.19047008 198.84914985 331.972179 201 340 C202.04977554 350.1925881 201.06485274 359.18945325 195.1171875 367.69140625 C189.82207122 374.05883102 183.49887494 380.06457986 174.99511719 381.28857422 C166.85770134 381.95289062 158.37042211 381.83087157 151 378 C150.24460937 377.60941406 149.48921875 377.21882813 148.7109375 376.81640625 C141.64130541 372.64319533 137.10916035 366.71697204 133.77734375 359.265625 C132.93085787 355.70953356 133.06678551 352.93975906 133.3347168 349.32983398 C134.21393231 335.6065395 129.8363735 324.893999 124.47607422 312.46923828 C121.9325871 306.49124425 119.60704529 300.42831154 117.25 294.375 C116.38036881 292.17441574 115.51058041 289.9738936 114.640625 287.7734375 C112.52285342 282.37800226 110.47331387 276.95883324 108.44703674 271.52859497 C106.30893628 265.80520722 104.1334105 260.09656633 101.94921875 254.390625 C101.60132294 253.48087921 101.25342712 252.57113342 100.89498901 251.63381958 C99.45859484 247.87776058 98.02189181 244.12182569 96.58178711 240.3671875 C95.51467845 237.58412641 94.45045423 234.79997681 93.38671875 232.015625 C93.06072189 231.16776428 92.73472504 230.31990356 92.39884949 229.4463501 C92.09795914 228.65742371 91.79706879 227.86849731 91.48706055 227.05566406 C91.09117989 226.02218842 91.09117989 226.02218842 90.68730164 224.96783447 C90.00565459 223.01618984 89.50138394 221.00553574 89 219 C76.13 219 63.26 219 50 219 C49.99512811 232.53514104 50.01558975 246.06959954 50.0802784 259.60459042 C50.10931323 265.88989573 50.12737631 272.17482858 50.12011719 278.46020508 C50.11351549 284.52943063 50.13605835 290.59792071 50.17855453 296.66699409 C50.18967055 298.97892195 50.19039959 301.29092453 50.18042374 303.60285759 C50.1682146 306.84924735 50.19340064 310.09340483 50.22705078 313.33959961 C50.21482986 314.28906967 50.20260895 315.23853973 50.1900177 316.21678162 C50.30611879 322.4590837 51.80331423 326.12913081 55.58268547 331.10543156 C60.61687671 337.83479166 59.60148708 347.04787209 59 355 C57.22682231 363.87778896 51.22227749 371.08857759 44.0703125 376.4453125 C35.11738511 381.81706894 25.13803463 382.27399504 15 381 C5.4449151 378.24453144 -1.19641101 372.18776285 -6.33984375 363.8203125 C-10.74516639 355.51134098 -11.52111813 345.25707047 -8.91721779 336.18789989 C-7.79027155 333.49972093 -6.18878637 331.44832744 -4.46514034 329.09907055 C-0.24904954 322.5352546 -0.01716108 317.06761319 -0.12025452 309.41487122 C-0.11305626 308.07304788 -0.10279119 306.73123816 -0.08975595 305.38945884 C-0.062963 301.7311592 -0.07923883 298.07416545 -0.10299766 294.41589248 C-0.12098577 290.46028162 -0.09839699 286.50486994 -0.08087158 282.54928589 C-0.05604071 275.70562939 -0.05660888 268.86235882 -0.07469368 262.01868629 C-0.10080354 252.12411064 -0.08819595 242.22987824 -0.06630235 232.33530613 C-0.03182117 216.28005394 -0.02841734 200.22495284 -0.04467773 184.16967773 C-0.06040128 168.57849374 -0.06141366 152.9874226 -0.04272461 137.39624023 C-0.04157668 136.43433062 -0.04042875 135.47242101 -0.03924603 134.48136262 C-0.03339641 129.65548426 -0.02725844 124.82960632 -0.02097714 120.00372851 C0.03071532 80.00245097 0.0319214 40.00129312 0 0 Z " fill="#010101" transform="translate(1062,582)"/>
<path d="M0 0 C13.97002825 -0.04692515 27.94004411 -0.08195524 41.91013527 -0.10362434 C48.39812594 -0.11402831 54.88606339 -0.12812528 61.37402344 -0.15087891 C67.64398084 -0.17272851 73.91388729 -0.18459405 80.18387985 -0.18975449 C82.56706926 -0.19342859 84.95025611 -0.20060274 87.33342361 -0.21146011 C116.49699295 -0.33895116 141.48002593 3.27223267 163.40625 24.30859375 C182.6343316 44.35979529 187.15447848 71.01076191 187.16796875 97.7265625 C187.17119206 99.24335764 187.17455689 100.76015249 187.17805481 102.27694702 C187.18401171 105.44554361 187.18589837 108.61411306 187.18530273 111.78271484 C187.18520153 115.79635664 187.1988258 119.80981988 187.21607494 123.82341957 C187.22732488 126.95515707 187.22921798 130.08685324 187.22869301 133.21860886 C187.22985475 134.69583117 187.23417171 136.17305522 187.24202538 137.65025711 C187.3056079 150.84814668 186.72109549 164.22218981 182.625 176.875 C182.40440918 177.58350098 182.18381836 178.29200195 181.95654297 179.02197266 C181.32381293 181.02172898 180.66833884 183.01190346 180 185 C179.6803125 185.9590625 179.360625 186.918125 179.03125 187.90625 C172.56823938 205.51238237 157.79276331 221.81099353 140.91015625 230.015625 C135.38679723 232.39491812 129.65175392 234.05081202 123.875 235.6875 C123.12299316 235.90212891 122.37098633 236.11675781 121.59619141 236.33789062 C120.86062012 236.53962891 120.12504883 236.74136719 119.3671875 236.94921875 C118.71862793 237.12799561 118.07006836 237.30677246 117.40185547 237.4909668 C109.59348376 239.14582093 101.91932865 239.13232486 93.96875 239.09765625 C92.1212616 239.09553383 92.1212616 239.09553383 90.2364502 239.09336853 C86.32427484 239.08779612 82.41215789 239.07524867 78.5 239.0625 C75.8385425 239.05691482 73.17708556 239.05291916 70.515625 239.04882812 C64.01039693 239.03783572 57.50520264 239.02112514 51 239 C50.99167979 249.92744042 51.01565491 260.85429522 51.0802784 271.78156185 C51.10928737 276.85620768 51.12738494 281.93039313 51.12011719 287.00512695 C51.11350512 291.90732809 51.13611558 296.80862101 51.17855453 301.71063423 C51.18965239 303.57598193 51.190416 305.4414221 51.18042374 307.30677605 C51.01614238 321.26802217 51.01614238 321.26802217 58 333 C61.23365981 340.44299284 60.76977176 349.02284591 59.25 356.875 C58.8375 357.90625 58.425 358.9375 58 360 C57.74347656 360.64195312 57.48695312 361.28390625 57.22265625 361.9453125 C53.08035688 371.29659778 46.23342189 376.09355228 37 380 C28.52982847 382.82339051 17.33062684 382.26340824 9.3125 378.4375 C0.20781717 373.04259816 -5.26750644 366.24969393 -8.61328125 356.1484375 C-10.23943172 347.11426823 -9.92354548 337.88679045 -5 330 C-4.32460049 329.23676107 -3.64920097 328.47352215 -2.95333481 327.68715477 C0.330643 322.7107838 -0.44519801 316.71642025 -0.48101807 310.97817993 C-0.4751402 309.63655776 -0.46751179 308.29494231 -0.458287 306.95333898 C-0.43803285 303.27266675 -0.44257889 299.59238007 -0.45119452 295.9116776 C-0.45613875 291.94033162 -0.43805524 287.96908255 -0.42277527 283.99777222 C-0.39945791 277.1192058 -0.39071495 270.24074482 -0.39188385 263.36214066 C-0.39355278 253.41687216 -0.37322148 243.47174426 -0.34752855 233.52651326 C-0.3064402 217.390892 -0.28313277 201.25529601 -0.27099609 185.11962891 C-0.25916873 169.44577606 -0.23897416 153.77197081 -0.20751953 138.09814453 C-0.20558343 137.1319343 -0.20364733 136.16572408 -0.20165256 135.17023475 C-0.19188802 130.32301919 -0.1819589 125.47580398 -0.17194796 120.62858891 C-0.08911625 80.4190819 -0.03513656 40.20957532 0 0 Z " fill="#010101" transform="translate(1301,582)"/>
<path d="M0 0 C14.43970283 -0.09395015 28.87935742 -0.16395806 43.31930447 -0.20724869 C50.02588903 -0.22776723 56.73225417 -0.25619144 63.4387207 -0.30175781 C69.92267423 -0.34553173 76.40643009 -0.36920333 82.8905201 -0.37950897 C85.35219492 -0.38684405 87.81386013 -0.40116603 90.27544975 -0.42292023 C117.30357479 -0.65206796 141.13804902 3.7996682 161.24609375 23.22265625 C173.06713966 35.1443068 179.96519762 49.85524224 184 66 C184.1733638 66.63877579 184.3467276 67.27755157 184.52534485 67.9356842 C186.58115066 76.56489328 186.30894311 85.32122059 186.30078125 94.1328125 C186.30467793 95.89623107 186.30901457 97.65964871 186.31376648 99.42306519 C186.3211982 103.10954841 186.32096085 106.79593584 186.31567383 110.48242188 C186.30990092 115.16202065 186.32677229 119.84122081 186.3500185 124.52075386 C186.36489466 128.16206075 186.36560858 131.80327488 186.36250877 135.44460678 C186.36301563 137.16744649 186.36813106 138.8902923 186.37832069 140.61310196 C186.51202528 166.38929297 180.61540188 194.04658638 161.98046875 213.06640625 C161.32691406 213.70449219 160.67335938 214.34257813 160 215 C159.195625 215.886875 158.39125 216.77375 157.5625 217.6875 C138.84866609 234.57559401 115.66927081 239.20941232 91.2109375 239.09765625 C90.02650055 239.0962413 88.8420636 239.09482635 87.62173462 239.09336853 C83.87279639 239.08781209 80.1239199 239.07526782 76.375 239.0625 C73.81901128 239.05747937 71.26302162 239.05291745 68.70703125 239.04882812 C62.47133342 239.03785696 56.23567113 239.02116276 50 239 C49.99167979 249.92744042 50.01565491 260.85429522 50.0802784 271.78156185 C50.10928737 276.85620768 50.12738494 281.93039313 50.12011719 287.00512695 C50.11350512 291.90732809 50.13611558 296.80862101 50.17855453 301.71063423 C50.18965239 303.57598193 50.190416 305.4414221 50.18042374 307.30677605 C49.77566073 320.18777976 49.77566073 320.18777976 55.53268433 331.28858948 C59.94998106 336.44072425 60.5625714 343.64370336 60.34375 350.171875 C59.2666702 359.03330428 55.38314076 366.77431812 49 373 C41.49682886 378.54116918 34.44261808 381.35649141 25.0625 381.25 C24.38509766 381.25773437 23.70769531 381.26546875 23.00976562 381.2734375 C12.90857942 381.23469853 6.50830838 377.35587035 -1 371 C-7.42929414 364.49577236 -10.19637239 355.33724954 -10.5 346.375 C-10.22651508 338.14115057 -6.9263471 329.9263471 -1 324 C-0.89765193 322.27472296 -0.86600409 320.54522794 -0.8613348 318.8169241 C-0.85312313 317.12100727 -0.85312313 317.12100727 -0.84474558 315.3908295 C-0.84376747 314.1330751 -0.84278936 312.87532069 -0.84178162 311.57945251 C-0.83721991 310.24215262 -0.83222047 308.90485416 -0.82681805 307.56755739 C-0.81318294 303.87570996 -0.80580313 300.18387179 -0.79939139 296.49200571 C-0.79141093 292.5171966 -0.77770511 288.54240689 -0.76467896 284.56761169 C-0.74288267 277.67534426 -0.72474976 270.7830749 -0.70907402 263.89079094 C-0.68640401 253.92558862 -0.65825727 243.96040775 -0.62875474 233.99522359 C-0.58104356 217.82910057 -0.53778897 201.66296881 -0.49731445 185.49682617 C-0.45797744 169.78881142 -0.41655555 154.08080447 -0.37231445 138.37280273 C-0.36959018 137.40527889 -0.36686591 136.43775505 -0.36405908 135.4409123 C-0.3503799 130.58734375 -0.33665957 125.73377532 -0.32291877 120.88020694 C-0.20889862 80.58682084 -0.10210156 40.29341795 0 0 Z " fill="#010101" transform="translate(1986,582)"/>
<path d="M0 0 C19.47 0 38.94 0 59 0 C65.86170213 27.44680851 65.86170213 27.44680851 68.0625 37.1875 C69.79016054 44.7902317 71.56062626 52.3814588 73.37109375 59.96484375 C75.94811499 70.76035203 78.48431691 81.56504463 81 92.375 C81.21854645 93.31321594 81.4370929 94.25143188 81.66226196 95.21807861 C84.07624552 105.58863919 86.47088878 115.96009522 88.6875 126.375 C91.06513001 137.52743836 93.76855924 148.59564657 96.46638489 159.67427063 C98.63376875 168.58787569 100.75244129 177.51313768 102.875 186.4375 C103.08606384 187.32453613 103.29712769 188.21157227 103.5145874 189.12548828 C107.00318199 203.7878803 110.47994344 218.45307185 113.94995117 233.11987305 C116.04183638 241.96101878 118.14202836 250.80008206 120.2590332 259.63525391 C121.35258298 264.21824306 122.41478799 268.80739865 123.45703125 273.40234375 C126.32677362 286.03742246 129.38150433 298.5581435 133 311 C133.27714844 312.22589844 133.55429687 313.45179688 133.83984375 314.71484375 C135.19686267 318.55744616 136.63481697 319.88811763 139.8125 322.375 C145.4784115 327.16482403 149.65957681 332.55467913 151 340 C151.76170236 352.71457024 150.55583789 361.27378806 142 371 C135.63387125 377.77181343 128.47108866 381.06136241 119.14624023 381.47290039 C108.56178574 381.6105541 99.59795304 379.51845106 91.78515625 372.05859375 C84.96805066 364.19729256 81.62825426 356.16471769 81.796875 345.80859375 C82.03616135 342.49999983 82.65924319 339.45211431 83.5625 336.265625 C84.89149758 329.38331611 83.30802412 323.16298682 81.6875 316.5 C81.22513829 314.5341886 80.76420431 312.56804086 80.3046875 310.6015625 C80.08006836 309.64540039 79.85544922 308.68923828 79.62402344 307.70410156 C77.35411324 297.86782402 75.65973063 287.9583838 74 278 C44.3 278 14.6 278 -16 278 C-16.66 282.62 -17.32 287.24 -18 292 C-18.53778127 294.78749457 -19.10705703 297.56936588 -19.7265625 300.33984375 C-20.03916278 301.76625407 -20.35165997 303.19268698 -20.6640625 304.61914062 C-21.14674113 306.79390893 -21.63186035 308.9681038 -22.11914062 311.1418457 C-22.59865297 313.2898604 -23.06924332 315.43969147 -23.5390625 317.58984375 C-23.81959473 318.84659912 -24.10012695 320.10335449 -24.38916016 321.39819336 C-25.27987482 326.65027705 -25.58385265 330.61334997 -23.5 335.5625 C-20.28994183 343.5413465 -21.03171357 352.47294958 -24.0625 360.375 C-28.39910169 369.4976551 -33.95808745 374.68796037 -43 379 C-43.59941406 379.36867188 -44.19882812 379.73734375 -44.81640625 380.1171875 C-51.90604449 382.98348132 -62.964474 381.62341648 -70 379 C-79.80909536 374.18014623 -85.8000485 368.18204593 -90.08203125 358.09375 C-92.54217281 349.80254951 -91.9644385 341.09253952 -88.33984375 333.25 C-86.03373987 329.37735908 -83.15719369 326.19399082 -80 323 C-78.8553125 321.7625 -78.8553125 321.7625 -77.6875 320.5 C-76 319 -76 319 -74 319 C-71.45256746 308.29084951 -68.99045232 297.56662452 -66.62194824 286.81652832 C-57.97432839 247.59316785 -57.97432839 247.59316785 -54.0625 232.375 C-52.01797955 224.35877605 -50.30622242 216.27305705 -48.5625 208.1875 C-46.72402352 199.6636325 -44.88755433 191.15749168 -42.5625 182.75 C-40.07337355 173.71958332 -38.07551828 164.58288474 -36.0625 155.4375 C-35.89071228 154.65709351 -35.71892456 153.87668701 -35.54193115 153.07263184 C-34.85447483 149.94815377 -34.16720556 146.82363471 -33.48043823 143.69900513 C-31.92275128 136.62336068 -30.31785358 129.55928985 -28.6875 122.5 C-28.34247437 121.0003772 -28.34247437 121.0003772 -27.99047852 119.47045898 C-26.88005025 114.67596422 -25.72790971 109.89578166 -24.51953125 105.125 C-22.88014926 98.61179391 -21.43316092 92.06118985 -20 85.5 C-18.33005322 77.8547749 -16.59232092 70.23979497 -14.66992188 62.65380859 C-13.82306637 59.29910038 -13.03257435 55.93273766 -12.25 52.5625 C-10.95769438 47.01944839 -9.63602042 41.48411613 -8.29296875 35.953125 C-7.9877832 34.69556396 -7.68259766 33.43800293 -7.36816406 32.14233398 C-6.76360767 29.6544861 -6.157572 27.16699706 -5.54980469 24.67993164 C-5.26395508 23.50293701 -4.97810547 22.32594238 -4.68359375 21.11328125 C-4.30545532 19.56314331 -4.30545532 19.56314331 -3.91967773 17.98168945 C-2.53906635 12.00441547 -1.28538697 5.99847251 0 0 Z " fill="#010101" transform="translate(770,582)"/>
<path d="M0 0 C11.00168705 5.81580527 11.00168705 5.81580527 13 11 C13.66 11 14.32 11 15 11 C15.98484108 12.74681293 16.96266187 14.4975851 17.9375 16.25 C18.48277344 17.22453125 19.02804687 18.1990625 19.58984375 19.203125 C23.70196931 27.35903054 22.70052399 36.89447205 20.2421875 45.453125 C19 48 19 48 17.59336662 49.61179352 C12.66843756 55.25549701 12.13746567 59.6767117 12.22705078 67.00585938 C12.21642105 68.07992035 12.20579132 69.15398132 12.19483948 70.2605896 C12.16687389 73.78879167 12.18082649 77.31548861 12.1953125 80.84375 C12.18405824 83.29855654 12.17017581 85.75335231 12.15377808 88.20812988 C12.11776601 94.65259821 12.1173635 101.09659186 12.12445068 107.5411377 C12.12552482 115.28229479 12.08224067 123.02331639 12.04641724 130.76437378 C11.9970161 142.50982846 12.00385872 154.25404446 12 166 C42.36 166 72.72 166 104 166 C103.99650362 146.61991617 103.99650362 146.61991617 103.9375 127.24023438 C103.90111225 119.33512047 103.87120423 111.43035611 103.87988281 103.52514648 C103.8864734 97.1512023 103.86400467 90.77796034 103.82144547 84.40416145 C103.8103097 81.9733537 103.80961823 79.54247477 103.81957626 77.11166191 C103.83174444 73.7044418 103.80667241 70.29936643 103.77294922 66.89233398 C103.79128059 65.38721252 103.79128059 65.38721252 103.8099823 63.85168457 C103.70373001 57.88816618 102.80086133 54.68002846 98.46499825 50.47981358 C93.18150235 45.1428864 93.41510109 37.88094433 93.44921875 30.92236328 C93.75719496 21.48096762 97.42390758 14.49291425 103.75 7.5625 C109.34328795 2.41924671 116.31364989 -1.52940714 124 -2 C124.81082031 -2.061875 125.62164063 -2.12375 126.45703125 -2.1875 C135.76453989 -2.60405983 143.70965357 0.1360257 151 6 C158.99541129 13.74555469 163.15638086 20.23274474 163.4375 31.5 C163.20280479 39.330997 162.09084707 45.21982707 157.42724228 51.54352856 C154.19372135 56.68109649 154.29590734 61.42926363 154.35162354 67.36604309 C154.34241245 68.49217772 154.33320137 69.61831234 154.32371116 70.77857226 C154.29913446 74.54254774 154.31019045 78.30555335 154.32128906 82.06958008 C154.31397202 84.77211623 154.2992538 87.47460149 154.28500366 90.17710876 C154.25510346 96.75043656 154.25242916 103.32350271 154.26001683 109.89688376 C154.26584906 115.24225985 154.26263768 120.58755798 154.25304413 125.93292809 C154.25170052 126.69466792 154.25035691 127.45640775 154.24897258 128.2412306 C154.24622925 129.7888873 154.24347677 131.33654399 154.24071524 132.88420065 C154.21612708 147.38884213 154.22370712 161.89333544 154.24128529 176.39797809 C154.25638122 189.65304661 154.23220028 202.90769924 154.18925288 216.16269592 C154.14544373 229.78760345 154.12762836 243.41231616 154.13802886 257.03729361 C154.14342619 264.6807977 154.13876764 272.32396801 154.10706329 279.96741676 C154.08037566 286.47528162 154.07844871 292.98259064 154.10792437 299.4904528 C154.12228935 302.8078159 154.12184666 306.12335849 154.09827042 309.44079208 C154.07456332 313.0457947 154.09425987 316.64810944 154.12457275 320.25300598 C154.10759346 321.2894095 154.09061417 322.32581301 154.07312036 323.3936227 C154.1973498 330.53453255 156.17785079 334.7746021 160.40187049 340.51844901 C164.47832445 346.84830419 163.92793294 356.4558578 162.46875 363.6015625 C159.26028448 373.75007844 153.83466012 380.75656754 144.75390625 386.39453125 C136.27744249 390.43979136 124.96949264 390.471023 116 387.875 C106.45832777 383.98563265 99.27347944 376.36463689 94.82470703 367.21630859 C93.43542743 363.48277389 93.45822778 359.94216255 93.5625 356 C93.55541016 355.24460937 93.54832031 354.48921875 93.54101562 353.7109375 C93.62195147 346.46406643 95.18811609 340.93725816 100.06716919 335.50488281 C104.03501095 330.27323072 103.84358183 325.35746179 103.77294922 318.984375 C103.78357895 317.80302475 103.79420868 316.6216745 103.80516052 315.40452576 C103.83315278 311.51924718 103.81916591 307.63533279 103.8046875 303.75 C103.81263219 301.04854484 103.8295299 298.34716536 103.84622192 295.64575195 C103.8804841 289.27459066 103.88451139 282.90378868 103.87749684 276.53255367 C103.87035288 268.56195993 103.90388613 260.59160197 103.9375 252.62109375 C103.99723715 238.41391031 103.99576147 224.20754894 104 210 C73.64 210 43.28 210 12 210 C11.97644471 232.25544815 11.97644471 232.25544815 12.0210619 254.51046944 C12.0487058 262.47309004 12.06614737 270.43529324 12.04467773 278.39794922 C12.02770588 284.70483662 12.03554261 291.0111395 12.07234758 297.31795049 C12.09096763 300.65337331 12.09401987 303.98698567 12.07469368 307.32253265 C11.64018277 326.44044542 11.64018277 326.44044542 20 343 C22.90552022 351.50509787 21.96999495 362.9772327 18.125 370.9609375 C17.75375 371.63382813 17.3825 372.30671875 17 373 C16.13375 374.60875 16.13375 374.60875 15.25 376.25 C10.03524124 382.62359404 3.04427077 387.12899353 -5 389 C-16.64405817 390.04362656 -26.79581349 389.30814234 -36.15234375 381.71875 C-43.85204564 374.55623662 -48.09017253 365.54622678 -48.5 355 C-48.21972201 347.54847135 -46.35740882 340.74426242 -41.45405674 335.03626442 C-38.00866803 330.2224836 -38.30683842 325.49499479 -38.37181091 319.75180054 C-38.36116933 318.06365547 -38.36116933 318.06365547 -38.35031277 316.34140646 C-38.33272494 312.57409833 -38.35084308 308.80782074 -38.36889648 305.04052734 C-38.36651543 302.33826384 -38.35666602 299.6360389 -38.34721375 296.93379211 C-38.32885169 290.35896571 -38.33733917 283.78443683 -38.35530197 277.20961975 C-38.36933539 271.8665585 -38.37321919 266.52357794 -38.3698597 261.18050003 C-38.36938225 260.41966773 -38.36890481 259.65883544 -38.3684129 258.87494761 C-38.36738656 257.32929199 -38.3663312 255.78363638 -38.36524714 254.2379808 C-38.35668329 240.57656311 -38.37334608 226.915289 -38.40307617 213.25390625 C-38.43192419 199.99766004 -38.43899137 186.74162056 -38.42358398 173.48535156 C-38.40682544 159.04680679 -38.40278317 144.60836012 -38.42029434 130.1698128 C-38.42213873 128.63049802 -38.42397345 127.09118324 -38.42579842 125.55186844 C-38.42671051 124.79450659 -38.4276226 124.03714474 -38.42856232 123.25683253 C-38.43416902 117.91906227 -38.43085942 112.5813399 -38.42425346 107.24357224 C-38.41652459 100.74037394 -38.42325692 94.23737918 -38.4484285 87.73422192 C-38.46093291 84.4160469 -38.46491385 81.09825416 -38.45588684 77.78005791 C-38.44723054 74.18444679 -38.46308499 70.58976535 -38.4853363 66.99423218 C-38.47709554 65.94356044 -38.46885477 64.89288871 -38.46036428 63.81037843 C-38.50835423 58.07042829 -38.50835423 58.07042829 -40.93060398 52.96129799 C-41.95495501 51.99045548 -41.95495501 51.99045548 -43 51 C-48.52704179 42.92201584 -48.82225132 34.55733681 -48 25 C-46.27164128 16.75259697 -41.3177027 10.41384258 -35 5 C-24.10154032 -1.66617943 -12.36503841 -4.72720166 0 0 Z " fill="#010101" transform="translate(494,574)"/>
<path d="M0 0 C0.88727783 0.15686279 1.77455566 0.31372559 2.6887207 0.4753418 C8.92073088 1.69529685 14.56715048 3.70309952 20.375 6.25 C21.42429687 6.70761719 22.47359375 7.16523437 23.5546875 7.63671875 C43.15996267 17.09839503 57.18040382 32.38090012 65.2109375 52.6484375 C71.375 71.71979866 71.375 71.71979866 71.375 79.25 C72.035 79.25 72.695 79.25 73.375 79.25 C80.42009485 87.94346641 81.12438598 97.4201639 80.375 108.25 C79.05949448 116.86058159 74.89610576 123.63466371 68.09375 129.07421875 C58.45296453 135.71029275 49.82589802 136.27902807 38.375 135.25 C31.11918065 133.73345203 25.17452812 129.87171709 20.375 124.25 C13.888647 114.14598607 12.19553498 105.09331744 13.375 93.25 C14.14777886 90.63308977 15.02710836 88.54838183 16.40234375 86.20703125 C18.2648566 82.45956563 18.67318177 79.36261854 17.58984375 75.3203125 C14.8444474 68.98994906 12.0259211 63.38563247 7.375 58.25 C6.64216797 57.43595703 6.64216797 57.43595703 5.89453125 56.60546875 C-2.15422591 48.75544633 -12.29539144 46.74527553 -23.125 46.625 C-35.70368322 46.79786071 -45.31598239 49.84431234 -54.46875 58.7890625 C-67.61978842 73.79839983 -67.92829339 91.81092071 -67.88378906 110.74951172 C-67.88650366 112.69898611 -67.89006721 114.64845947 -67.89440918 116.59793091 C-67.90348091 121.86248109 -67.90001022 127.12695236 -67.89365101 132.39150381 C-67.88856246 137.92092687 -67.8932905 143.4503435 -67.89642334 148.97976685 C-67.9000553 158.26500655 -67.89528476 167.55021437 -67.88574219 176.83544922 C-67.87486556 187.54181282 -67.8783806 198.24810019 -67.889395 208.95446193 C-67.89849752 218.1743859 -67.8997385 227.39428704 -67.89451766 236.61421406 C-67.8914134 242.10861466 -67.89094576 247.60297953 -67.89759064 253.09737778 C-67.9034065 258.26686256 -67.89929027 263.43624997 -67.88780212 268.60572433 C-67.8851778 270.49299458 -67.88588207 272.38027314 -67.89032745 274.26753998 C-67.93096361 293.28618245 -67.48217618 312.88685897 -53.51953125 327.4453125 C-42.31262607 337.89994694 -32.27508035 338.79662764 -17.4453125 338.59765625 C-7.97082513 338.23372142 0.79313548 335.3019977 7.375 328.25 C13.68283523 320.56058139 19.24343156 311.53757392 18.375 301.25 C17.30498752 298.55340914 17.30498752 298.55340914 15.875 295.875 C12.21420886 287.42056546 11.67226155 278.64922883 14.44921875 269.84375 C18.88577185 260.21703753 25.45787238 253.14208778 35.375 249.25 C43.08686925 246.67937692 54.56977969 246.78488943 62 250.25 C70.31471557 255.34473105 76.81707835 262.74020437 79.984375 272.0390625 C81.66835807 281.5704067 81.33560563 291.78496651 76.375 300.25 C75.53536114 301.30341194 74.68134784 302.34554695 73.8125 303.375 C70.76146517 307.33583137 70.49506984 311.66373212 69.7409668 316.49926758 C65.79799681 339.41013541 52.42724359 359.80722456 33.59765625 373.21875 C19.45156012 382.13507726 3.1801659 387.35308271 -13.59375 387.453125 C-14.3511145 387.45882507 -15.108479 387.46452515 -15.88879395 387.47039795 C-17.48899966 387.47980802 -19.08922441 387.48636597 -20.68945312 387.49023438 C-23.09020714 387.49986049 -25.49007427 387.53088781 -27.890625 387.5625 C-52.73867389 387.73503805 -75.19804743 379.733688 -93.3828125 362.5625 C-115.33196651 339.92504499 -121.45070362 309.63930929 -121.25610352 279.05224609 C-121.26126091 276.9450165 -121.26855573 274.83779125 -121.27778625 272.73057556 C-121.29607453 267.08384619 -121.2835073 261.43759773 -121.26369596 255.79088926 C-121.2471235 249.83638821 -121.25614768 243.88191323 -121.26121521 237.92739868 C-121.26571492 227.93687393 -121.24999703 217.9465377 -121.22192383 207.95605469 C-121.18986425 196.459382 -121.18990167 184.96304869 -121.2071386 173.46635187 C-121.22308355 162.33430247 -121.21622023 151.20237571 -121.19920158 140.07033157 C-121.19238759 135.36513566 -121.19330466 130.66003973 -121.20074654 125.95484543 C-121.20849195 120.40095794 -121.19601804 114.84744989 -121.16889763 109.29362679 C-121.16209899 107.27384249 -121.1618222 105.25402216 -121.16911316 103.23423958 C-121.25913891 75.01137332 -115.36696731 49.16156472 -96.625 27.25 C-96.19662842 26.70794922 -95.76825684 26.16589844 -95.3269043 25.60742188 C-91.54911249 20.94009747 -87.43432829 17.55636174 -82.4375 14.25 C-81.66011475 13.73453613 -80.88272949 13.21907227 -80.08178711 12.68798828 C-68.85304496 5.53456419 -55.8978364 0.69872051 -42.625 -0.75 C-41.83222656 -0.85828125 -41.03945313 -0.9665625 -40.22265625 -1.078125 C-26.77757425 -2.65258761 -13.31504151 -2.38364794 0 0 Z " fill="#010101" transform="translate(334.625,574.75)"/>
<path d="M0 0 C5.94248581 4.75174196 11.50502854 11.84403091 12.75390625 19.52734375 C13.47457901 30.99903634 13.33939879 39.83491186 6.06640625 49.21484375 C-0.75656222 56.58639259 -8.08970661 59.96425177 -17.9765625 60.7421875 C-27.90893497 61.0846831 -35.61427437 57.94007601 -43.24609375 51.52734375 C-43.57609375 50.53734375 -43.90609375 49.54734375 -44.24609375 48.52734375 C-68.99609375 48.52734375 -93.74609375 48.52734375 -119.24609375 48.52734375 C-119.24609375 87.79734375 -119.24609375 127.06734375 -119.24609375 167.52734375 C-72.8437149 172.51118233 -72.8437149 172.51118233 -62.24609375 160.52734375 C-53.1209095 154.30891391 -42.40958341 154.16987521 -31.80859375 156.15234375 C-22.58285791 159.71315408 -14.94795487 167.25349002 -10.80859375 176.21484375 C-7.69285613 185.00904691 -8.25658108 194.3070976 -11.78125 202.88671875 C-16.08474342 210.64448288 -22.62970489 217.29065595 -30.9140625 220.58984375 C-41.18310176 223.47913967 -51.44549403 222.46138959 -60.73046875 217.328125 C-63.24609375 215.52734375 -63.24609375 215.52734375 -68.24609375 210.52734375 C-85.07609375 210.19734375 -101.90609375 209.86734375 -119.24609375 209.52734375 C-119.24609375 250.77734375 -119.24609375 292.02734375 -119.24609375 334.52734375 C-94.49609375 334.52734375 -69.74609375 334.52734375 -44.24609375 334.52734375 C-43.58609375 333.20734375 -42.92609375 331.88734375 -42.24609375 330.52734375 C-39.96875 328.859375 -39.96875 328.859375 -37.30859375 327.33984375 C-36.43332031 326.83066406 -35.55804687 326.32148437 -34.65625 325.796875 C-27.34584934 321.94617773 -16.33565022 322.33020345 -8.33984375 324.2109375 C-6.13263306 325.14744767 -4.24066253 326.20039571 -2.24609375 327.52734375 C-1.55386719 327.93984375 -0.86164062 328.35234375 -0.1484375 328.77734375 C6.89022133 333.40838657 11.09984947 340.62576831 13.75390625 348.52734375 C14.77682881 357.91963272 13.57493657 366.89483204 8.06640625 374.71484375 C3.36302862 380.46600352 -2.67897802 387.07719962 -10.24609375 388.52734375 C-22.98556953 389.41084207 -32.00167475 388.34880888 -42.24609375 380.52734375 C-42.90609375 379.86734375 -43.56609375 379.20734375 -44.24609375 378.52734375 C-85.82609375 378.19734375 -127.40609375 377.86734375 -170.24609375 377.52734375 C-170.24609375 254.76734375 -170.24609375 132.00734375 -170.24609375 5.52734375 C-128.99609375 5.19734375 -87.74609375 4.86734375 -45.24609375 4.52734375 C-43.92609375 3.86734375 -42.60609375 3.20734375 -41.24609375 2.52734375 C-41.24609375 1.86734375 -41.24609375 1.20734375 -41.24609375 0.52734375 C-39.66534811 -0.29017928 -38.08138152 -1.10147622 -36.49609375 -1.91015625 C-35.17351563 -2.58884766 -35.17351563 -2.58884766 -33.82421875 -3.28125 C-23.12169832 -8.22711171 -9.6885407 -6.35231277 0 0 Z " fill="#010101" transform="translate(2589.24609375,576.47265625)"/>
<path d="M0 0 C6.32543682 4.6720921 12.25444374 10.47667755 14.296875 18.28515625 C15.79342711 29.32423952 15.5707074 40.00381562 9.53515625 49.65234375 C6.37256325 53.78582396 2.11922031 56.38831836 -2.33984375 58.96484375 C-2.96761719 59.32964844 -3.59539062 59.69445312 -4.2421875 60.0703125 C-11.49062229 63.16135825 -21.31425163 63.36955857 -28.67578125 60.80078125 C-32.94479186 58.7453317 -36.42994334 57.02544282 -39.54582214 53.39350891 C-43.12635461 50.28117992 -45.00369337 50.32942373 -49.70043945 50.30541992 C-50.43454387 50.29490506 -51.16864828 50.2843902 -51.92499828 50.27355671 C-54.2889931 50.24527714 -56.65149936 50.25083276 -59.015625 50.2578125 C-60.47996065 50.2452812 -61.94427899 50.23052203 -63.40856934 50.21350098 C-68.82299202 50.16613627 -74.23772221 50.16182765 -79.65234375 50.15234375 C-91.75921875 50.09046875 -103.86609375 50.02859375 -116.33984375 49.96484375 C-116.33984375 89.23484375 -116.33984375 128.50484375 -116.33984375 168.96484375 C-70.25846992 173.46751027 -70.25846992 173.46751027 -58.33984375 161.96484375 C-51.03136841 156.64734054 -43.08997411 155.70293973 -34.29541016 156.61767578 C-26.54026757 157.99443143 -18.48441975 162.99685734 -13.609375 169.1484375 C-13.12855469 169.89222656 -12.64773438 170.63601563 -12.15234375 171.40234375 C-11.41951172 172.51416016 -11.41951172 172.51416016 -10.671875 173.6484375 C-6.34707316 181.16928058 -6.18421046 189.49603612 -7.33984375 197.96484375 C-10.53579415 207.93841311 -16.52466252 215.63113947 -25.41015625 221.01953125 C-32.92852196 224.70261729 -44.63928778 224.3346551 -52.5703125 222.0234375 C-57.29353509 219.74400027 -60.92807587 216.92689677 -64.33984375 212.96484375 C-76.60542341 200.69926409 -98.9970282 211.30489896 -116.33984375 210.96484375 C-116.33984375 251.88484375 -116.33984375 292.80484375 -116.33984375 334.96484375 C-97.99390625 334.90296875 -97.99390625 334.90296875 -79.27734375 334.83984375 C-73.49964478 334.84346924 -73.49964478 334.84346924 -67.60522461 334.84716797 C-64.13119615 334.82061075 -64.13119615 334.82061075 -60.65724182 334.78616333 C-59.11842556 334.77467373 -57.57949381 334.77484201 -56.04066467 334.78445435 C-45.82897825 335.22438562 -45.82897825 335.22438562 -36.9543457 331.00585938 C-36.07890015 329.99559251 -35.20683355 328.98237642 -34.33984375 327.96484375 C-26.30753814 323.94869095 -17.46470113 322.34489633 -8.7109375 324.66015625 C1.32197757 328.30570402 8.53209284 334.51875201 13.6953125 343.83203125 C17.6273361 352.6470795 16.27245523 362.35540569 12.9765625 371.140625 C8.37373884 381.01552561 1.34500291 385.9009557 -8.33984375 390.33984375 C-17.34932245 392.21681848 -27.16679782 391.31478979 -35 386.2421875 C-37.56150441 384.26524194 -40.05003419 382.25465331 -42.33984375 379.96484375 C-83.58984375 379.63484375 -124.83984375 379.30484375 -167.33984375 378.96484375 C-167.33984375 256.20484375 -167.33984375 133.44484375 -167.33984375 6.96484375 C-126.08984375 6.63484375 -84.83984375 6.30484375 -42.33984375 5.96484375 C-40.02984375 3.98484375 -37.71984375 2.00484375 -35.33984375 -0.03515625 C-24.68332574 -6.56657052 -10.72832706 -6.27171802 0 0 Z " fill="#020202" transform="translate(1698.33984375,575.03515625)"/>
<path d="M0 0 C7.97729165 5.75542854 13.53890967 13.77754471 15.453125 23.4921875 C16.21719329 30.71900008 15.63222234 37.88406378 12.453125 44.4921875 C11.98877985 45.01841312 11.5244347 45.54463874 11.04601848 46.08681059 C5.95364358 51.86691822 5.59788098 56.56993098 5.69363403 64.08410645 C5.67981888 65.80945153 5.67981888 65.80945153 5.66572464 67.56965208 C5.64217484 71.41474125 5.66124288 75.25841865 5.68017578 79.10351562 C5.67533231 81.86331227 5.66146417 84.62304641 5.64796448 87.3828125 C5.62363607 93.319598 5.62111103 99.25606839 5.63354874 105.19288635 C5.65149949 113.77637411 5.63632898 122.35955426 5.61316942 130.9430179 C5.57648673 144.8702392 5.56645426 158.7973464 5.57324219 172.72460938 C5.57977738 186.2506905 5.57372353 199.77666974 5.55078125 213.30273438 C5.5493706 214.13699135 5.54795994 214.97124832 5.54650654 215.83078581 C5.53935192 220.01616106 5.53195024 224.20153584 5.52442575 228.38691044 C5.46235809 263.08868184 5.44356681 297.79036471 5.453125 332.4921875 C14.32906729 332.50050615 23.20417549 332.47654735 32.07988834 332.4119091 C36.2017679 332.38289402 40.32308042 332.36480428 44.44506836 332.37207031 C48.42663761 332.37868038 52.40708808 332.35608542 56.38842583 332.31363297 C57.90374199 332.30253123 59.41917202 332.30177521 60.93449593 332.31176376 C70.460656 332.66876196 70.460656 332.66876196 78.67749023 328.55517578 C79.13623032 328.02658966 79.5949704 327.49800354 80.06761169 326.95339966 C84.06641914 322.73611352 91.43387111 321.63388953 97.015625 321.2421875 C107.25544246 321.43251868 115.64783426 325.32185043 123.203125 332.05078125 C129.30696614 338.41403563 131.64661413 346.38042998 131.953125 355.0546875 C131.61729872 364.50260031 128.05896794 372.6967729 121.453125 379.4921875 C112.28667265 386.89775941 103.11591243 388.58858908 91.57128906 387.79101562 C85.56914354 386.94423991 79.64365742 383.81955644 75.50263977 379.41986084 C70.87188274 376.49264535 66.51911961 376.92116736 61.14526367 376.94628906 C60.00336578 376.93595139 58.8614679 376.92561371 57.68496704 376.91496277 C53.91353287 376.88548348 50.14263419 376.88403444 46.37109375 376.8828125 C43.75506056 376.86783441 41.13903684 376.85110806 38.52302551 376.83270264 C32.34310806 376.79217001 26.16329606 376.77180847 19.98326617 376.75872874 C12.94570478 376.74284933 5.90832259 376.70442984 -1.12913477 376.66413546 C-15.60164395 376.5817742 -30.07417591 376.52765855 -44.546875 376.4921875 C-44.54671265 375.80965109 -44.5465503 375.12711469 -44.54638302 374.42389536 C-44.53752133 333.9737585 -44.55983986 293.52374639 -44.62266529 253.07365456 C-44.63018136 248.21707212 -44.63743684 243.36048932 -44.64453125 238.50390625 C-44.645948 237.53704555 -44.64736475 236.57018484 -44.64882444 235.57402533 C-44.67114467 219.91748464 -44.67235325 204.26100984 -44.66576363 188.60445768 C-44.65947216 172.5401026 -44.67585916 156.47588618 -44.71331108 140.41157293 C-44.73570704 130.49847896 -44.74040087 120.5857008 -44.72247164 110.6725964 C-44.7118722 103.87535534 -44.72329578 97.07837384 -44.75203653 90.28118616 C-44.76797017 86.35907176 -44.77419428 82.43757482 -44.75426674 78.51546478 C-44.73622524 74.92233536 -44.74592872 71.33037277 -44.77741383 67.73734587 C-44.7870219 65.82653549 -44.76719348 63.91564653 -44.74621403 62.00492716 C-44.83665172 55.29640962 -45.48840673 51.17564975 -50.07797039 46.12993765 C-55.12230058 40.50577905 -55.07900294 33.22255761 -54.88671875 26.0234375 C-53.94187257 16.20572547 -49.91800842 8.99092263 -42.546875 2.4921875 C-29.27940756 -7.18330519 -14.35302684 -8.49734411 0 0 Z " fill="#010101" transform="translate(2260.546875,577.5078125)"/>
<path d="M0 0 C11.17605889 7.88598996 16.89922161 21.22732958 19.26171875 34.37890625 C19.96686707 41.16083126 19.81019824 47.99875292 19.77929688 54.80810547 C19.7847279 56.83345032 19.79185602 58.85879122 19.80053711 60.88412476 C19.81865912 66.34710563 19.81174848 71.80978185 19.79902077 77.27276754 C19.78883238 83.01478945 19.79830282 88.75678678 19.80456543 94.49880981 C19.81182608 104.14036702 19.80229695 113.78180134 19.78320312 123.42333984 C19.7614499 134.53535825 19.76848103 145.64708286 19.79050875 156.75909412 C19.8087227 166.33409492 19.81119149 175.90900781 19.80075407 185.48402035 C19.79455042 191.18752482 19.79359647 196.89089169 19.80690002 202.59438705 C19.81854505 207.96099309 19.81027627 213.32722443 19.787323 218.69379044 C19.78208126 220.65117016 19.78347078 222.60858199 19.79237366 224.56594849 C19.86722243 242.70965 17.81277919 262.36430237 4.94921875 276.44140625 C-5.71085587 285.9276749 -18.80155698 287.21441392 -32.41015625 286.56982422 C-41.81049362 285.79894924 -50.18211347 282.23742157 -56.73828125 275.37890625 C-57.23328125 273.89390625 -57.23328125 273.89390625 -57.73828125 272.37890625 C-58.39828125 272.37890625 -59.05828125 272.37890625 -59.73828125 272.37890625 C-67.79980987 258.68535078 -70.89725774 245.67110487 -70.87872314 229.80477905 C-70.88169427 228.99096224 -70.88466539 228.17714544 -70.88772655 227.33866751 C-70.89633175 224.63771423 -70.89791479 221.9368057 -70.89941406 219.23583984 C-70.90404804 217.28843086 -70.90907347 215.34102277 -70.91445923 213.39361572 C-70.92752934 208.12058274 -70.93401761 202.84756246 -70.93846989 197.57451582 C-70.94140931 194.27390468 -70.94551573 190.97329694 -70.94997406 187.67268753 C-70.96363474 177.32767802 -70.97330841 166.98267638 -70.97717595 156.63765848 C-70.98165343 144.72950202 -70.99919303 132.82146053 -71.02817655 120.91333902 C-71.04984972 111.68582089 -71.05988323 102.45833498 -71.06121707 93.23079169 C-71.06226105 87.73013414 -71.06808187 82.22958488 -71.08603668 76.72895432 C-71.10261512 71.54963567 -71.1046258 66.37050559 -71.09589767 61.19116974 C-71.09513251 59.30109016 -71.09940045 57.41100002 -71.10935593 55.5209465 C-71.17703529 41.85979485 -70.90872715 28.08677632 -64.30078125 15.75390625 C-63.72457031 14.64789062 -63.14835937 13.541875 -62.5546875 12.40234375 C-56.71090422 2.67527223 -48.33374338 -2.99850379 -37.42578125 -5.95703125 C-23.84546206 -8.40263958 -12.0179118 -7.11474094 0 0 Z " fill="#FDFDFC" transform="translate(1863.73828125,627.62109375)"/>
<path d="M0 0 C8.56885148 4.3577892 15.4292681 10.89385918 18.71875 20.03515625 C21.85183465 30.11864708 21.31914735 37.61755141 17.203125 47.3359375 C15.71875 50.03515625 15.71875 50.03515625 13.65856361 51.52032948 C10.50704207 55.60604715 11.16158348 59.9548069 11.19735718 64.97160339 C11.18970608 66.099815 11.18205499 67.22802662 11.17417204 68.39042646 C11.15347225 72.18519514 11.16150357 75.97936083 11.16943359 79.77416992 C11.16293162 82.48920448 11.15050683 85.20420513 11.13845825 87.91921997 C11.11293681 94.53784908 11.10938048 101.15631602 11.11405878 107.77498605 C11.11762351 113.15622056 11.11412932 118.5374058 11.10560989 123.91863441 C11.10441952 124.68426901 11.10322914 125.44990361 11.10200269 126.23873926 C11.09957918 127.79413055 11.09715092 129.34952183 11.09471793 130.90491311 C11.07295487 145.49863535 11.07729674 160.09226523 11.08948763 174.6859927 C11.09981881 188.02991889 11.07733647 201.37355276 11.03929119 214.71742114 C11.00051952 228.42127928 10.98402549 242.12499921 10.99153769 255.82891256 C10.99536063 263.52156487 10.99039841 271.21396861 10.96210861 278.90657616 C10.93825926 285.45809231 10.93549421 292.00920703 10.95968895 298.56072881 C10.97145465 301.90196522 10.9704394 305.24186753 10.94968414 308.58315086 C10.92877702 312.21070999 10.94492441 315.83630237 10.9703064 319.46379089 C10.95555783 320.51263952 10.94080926 321.56148815 10.92561376 322.64212006 C11.02127526 329.14884988 12.32627221 333.0021676 16.3112551 338.17986184 C20.61011793 343.84642316 21.38469472 352.15372743 20.71875 359.03515625 C18.79155972 367.98053116 13.73014688 376.16514956 6.71875 382.03515625 C-3.71806892 388.43543545 -14.08183377 390.14788307 -26.2578125 387.3515625 C-28.45183999 386.41735645 -30.31125515 385.3749197 -32.28125 384.03515625 C-32.9721875 383.61105469 -33.663125 383.18695312 -34.375 382.75 C-41.65206758 377.87599392 -46.36079312 370.79463391 -48.8125 362.41796875 C-50.95420627 351.53096187 -48.32285764 342.66233882 -42.3671875 333.56640625 C-41.28125 332.03515625 -41.28125 332.03515625 -40.28125 331.03515625 C-40.17916528 329.56759898 -40.14651128 328.09515544 -40.1414423 326.62406063 C-40.13575106 325.66558599 -40.13005982 324.70711136 -40.12419611 323.71959203 C-40.1224263 322.12129414 -40.1224263 322.12129414 -40.12062073 320.4907074 C-40.11553291 319.36843705 -40.11044509 318.2461667 -40.10520309 317.08988816 C-40.08940106 313.29747558 -40.08093315 309.50508215 -40.07250977 305.71264648 C-40.06579574 303.69530283 -40.05829272 301.67796324 -40.05066944 299.66062283 C-40.01729599 290.82511144 -39.99581202 281.98958829 -39.97746959 273.15403447 C-39.97267654 270.85348698 -39.96769296 268.55293998 -39.96266437 266.25239301 C-39.93168893 251.97151409 -39.90499797 237.69063117 -39.88824558 223.40972805 C-39.88429594 220.09956798 -39.88029298 216.78940797 -39.8762207 213.47924805 C-39.87521234 212.65650235 -39.87420398 211.83375666 -39.87316506 210.98607928 C-39.85616544 197.6639441 -39.81506726 184.34199491 -39.76419771 171.0199505 C-39.71241638 157.34673071 -39.68330239 143.67360652 -39.6760487 130.0002895 C-39.67138638 122.32156128 -39.65663547 114.64313733 -39.6163044 106.96450615 C-39.58198923 100.42317657 -39.56807074 93.88220611 -39.58072854 87.34079169 C-39.58655301 84.00371807 -39.57943347 80.66801789 -39.5525589 77.33095551 C-39.5249529 73.70950396 -39.53435542 70.08995688 -39.55299377 66.4684906 C-39.53619885 65.41857372 -39.51940392 64.36865684 -39.50210005 63.2869243 C-39.59582591 56.00006355 -41.52905542 52.42367606 -46.28125 47.03515625 C-50.45403783 38.47962901 -50.61053563 28.40855538 -47.84375 19.41015625 C-43.68557201 9.36967769 -36.5928335 3.52222211 -26.8828125 -0.90625 C-18.16303754 -4.45438666 -8.62074627 -3.6461033 0 0 Z " fill="#020202" transform="translate(993.28125,574.96484375)"/>
<path d="M0 0 C58.96603774 0 58.96603774 0 70.8828125 10.6328125 C79.95725398 20.77877475 84.06170849 33.24266904 84.17700195 46.66943359 C84.19625481 48.63340591 84.19625481 48.63340591 84.21589661 50.63705444 C84.22407118 52.05751154 84.23151353 53.47797301 84.23828125 54.8984375 C84.24235678 55.6231789 84.2464323 56.3479203 84.25063133 57.09462357 C84.27144171 60.93856767 84.28575926 64.78247673 84.29516602 68.62646484 C84.30615807 72.55072809 84.34048749 76.47441298 84.38033772 80.39847374 C84.40679586 83.45473098 84.4148838 86.51085716 84.41844749 89.56721878 C84.42324675 91.01098109 84.4346638 92.45474032 84.45348549 93.89838791 C84.63479078 108.73928517 82.21128988 122.32212935 74 135 C73.13375 136.3921875 73.13375 136.3921875 72.25 137.8125 C65.98734167 143.9011956 58.36142055 146.96098692 50 149 C48.68 149.33 47.36 149.66 46 150 C30.82 150 15.64 150 0 150 C0 100.5 0 51 0 0 Z " fill="#FDFDFD" transform="translate(1352,626)"/>
<path d="M0 0 C59.14124178 0 59.14124178 0 70.94921875 11.75 C86.31285519 28.60610398 84.37326009 52.12615868 84.37060547 73.53564453 C84.37499074 77.49164516 84.41145099 81.44653852 84.44921875 85.40234375 C84.53009388 103.54183748 84.36039843 123.08016444 71.7421875 137.59765625 C52.51875282 156.1280831 25.06044737 150 0 150 C0 100.5 0 51 0 0 Z " fill="#FDFDFC" transform="translate(2036,626)"/>
<path d="M0 0 C58.31578947 0 58.31578947 0 70.875 10.375 C71.926875 11.674375 71.926875 11.674375 73 13 C73.73283203 13.86044922 73.73283203 13.86044922 74.48046875 14.73828125 C85.75173009 28.62558843 85.356409 46.20716019 85.31567383 63.23144531 C85.31250477 65.99584114 85.336096 68.75917227 85.36132812 71.5234375 C85.42619077 89.62862891 83.46145501 108.4477241 70.1953125 121.9765625 C51.77458937 138.95509379 22.00034959 132 0 132 C0 88.44 0 44.88 0 0 Z " fill="#FCFCFC" transform="translate(1112,626)"/>
<path d="M0 0 C1.51195271 2.78517605 2.40188357 5.276685 3.0078125 8.3828125 C3.18570313 9.2814502 3.36359375 10.18008789 3.546875 11.10595703 C3.73765625 12.10224121 3.9284375 13.09852539 4.125 14.125 C4.33382812 15.18960449 4.54265625 16.25420898 4.7578125 17.35107422 C6.17681561 24.62447298 7.55231322 31.90612861 8.9296875 39.1875 C13.79896072 65.06603149 13.79896072 65.06603149 19.28125 90.81982422 C20.69238041 97.0635011 22.08012006 103.31242966 23.47088623 109.56066895 C23.82193706 111.13762376 24.17321254 112.71452858 24.52471924 114.29138184 C27.28539877 126.67965211 29.97390494 139.08089556 32.49511719 151.52050781 C32.84842538 153.25561324 33.20906328 154.98923493 33.57519531 156.72167969 C33.75920898 157.60500977 33.94322266 158.48833984 34.1328125 159.3984375 C34.2992627 160.18653809 34.46571289 160.97463867 34.63720703 161.78662109 C35 164 35 164 35 168 C11.9 168 -11.2 168 -35 168 C-33.87515773 156.75157728 -33.87515773 156.75157728 -32.84838867 152.14916992 C-32.50749458 150.60026314 -32.50749458 150.60026314 -32.15971375 149.02006531 C-31.9149379 147.93449844 -31.67016205 146.84893158 -31.41796875 145.73046875 C-31.16251785 144.5736409 -30.90706696 143.41681305 -30.64387512 142.22492981 C-29.8304944 138.54456193 -29.00957882 134.86593389 -28.1875 131.1875 C-27.11454802 126.36935649 -26.04539177 121.55039326 -24.98046875 116.73046875 C-24.72060181 115.55491425 -24.46073486 114.37935974 -24.19299316 113.16818237 C-22.43870903 105.16804662 -20.84098307 97.14974642 -19.34535217 89.09770203 C-17.96292747 81.68374972 -16.33517506 74.34588876 -14.625 67 C-11.69046177 54.24126919 -8.97482715 41.44935298 -6.359375 28.62109375 C-2.40195802 9.23830008 -2.40195802 9.23830008 0 0 Z " fill="#FBFBFB" transform="translate(799,649)"/>
<path d="M0 0 C0.66 0 1.32 0 2 0 C2.19658808 1.41543415 2.38187546 2.83244031 2.5625 4.25 C2.66691406 5.03890625 2.77132812 5.8278125 2.87890625 6.640625 C3.00027349 9.00532874 2.69633257 10.7511037 2 13 C1.34 13 0.68 13 0 13 C0 8.71 0 4.42 0 0 Z " fill="#F1F1F1" transform="translate(849,921)"/>
<path d="M0 0 C0.99 0.33 1.98 0.66 3 1 C2.625 3.4375 2.625 3.4375 2 6 C1.01 6.495 1.01 6.495 0 7 C-0.99 6.01 -1.98 5.02 -3 4 C-1 1 -1 1 0 0 Z " fill="#F3F3F2" transform="translate(1877,880)"/>
<path d="M0 0 C0.33 0.66 0.66 1.32 1 2 C1.66 2 2.32 2 3 2 C2.34 5.3 1.68 8.6 1 12 C-1.23551759 8.64672361 -1.17283528 8.09256343 -0.625 4.3125 C-0.51414062 3.50425781 -0.40328125 2.69601562 -0.2890625 1.86328125 C-0.19367187 1.24839844 -0.09828125 0.63351562 0 0 Z " fill="#E0E0E0" transform="translate(698,880)"/>
<path d="M0 0 C0.33 0 0.66 0 1 0 C1 2.31 1 4.62 1 7 C-0.98 7.99 -0.98 7.99 -3 9 C-3 6.69 -3 4.38 -3 2 C-2.34 2 -1.68 2 -1 2 C-0.67 1.34 -0.34 0.68 0 0 Z " fill="#F3F3F2" transform="translate(678,926)"/>
<path d="M0 0 C1.32 0 2.64 0 4 0 C4.93423645 3.01031744 5.04449911 3.86650268 4 7 C3.34 7 2.68 7 2 7 C1.34 4.69 0.68 2.38 0 0 Z " fill="#F4F4F4" transform="translate(1169,859)"/>
<path d="M0 0 C0.598125 0.20625 1.19625 0.4125 1.8125 0.625 C0.1625 2.275 -1.4875 3.925 -3.1875 5.625 C-3.8475 4.965 -4.5075 4.305 -5.1875 3.625 C-5.1875 2.965 -5.1875 2.305 -5.1875 1.625 C-2.1875 -0.375 -2.1875 -0.375 0 0 Z " fill="#EAEAEB" transform="translate(695.1875,898.375)"/>
<path d="M0 0 C0.66 0 1.32 0 2 0 C3.625 2.5 3.625 2.5 5 5 C3.02 5.99 3.02 5.99 1 7 C-1 4 -1 4 -0.625 1.8125 C-0.41875 1.214375 -0.2125 0.61625 0 0 Z " fill="#F0F0F0" transform="translate(359,823)"/>
<path d="M0 0 C0.33 0 0.66 0 1 0 C1 2.64 1 5.28 1 8 C0.01 8.33 -0.98 8.66 -2 9 C-3 6 -3 6 -2.125 3.9375 C-1.75375 3.298125 -1.3825 2.65875 -1 2 C-0.67 1.34 -0.34 0.68 0 0 Z " fill="#F2F2F2" transform="translate(347,852)"/>
</svg>
